<svg width="68" height="29" viewBox="0 0 68 29" fill="none" xmlns="http://www.w3.org/2000/svg">
<path d="M17.8926 17.2539H22.3896V28.665H16.75V22H0.314453V0.583984H6.12988V17.2539H12.0771V0.583984H17.8926V17.2539ZM42.7949 22H36.9648V5.31543H31.0615V22H25.2461V0.583984H42.7949V22ZM67.4629 11.2627C67.4629 14.8662 66.5791 17.6055 64.8115 19.4805C63.0439 21.3555 60.4561 22.293 57.0479 22.293C53.6885 22.293 51.1104 21.3506 49.3135 19.4658C47.5264 17.5811 46.6328 14.8369 46.6328 11.2334C46.6328 7.66895 47.5215 4.94922 49.2988 3.07422C51.0859 1.18945 53.6787 0.24707 57.0771 0.24707C60.4854 0.24707 63.0684 1.17969 64.8262 3.04492C66.584 4.91016 67.4629 7.64941 67.4629 11.2627ZM52.7266 11.2627C52.7266 15.4033 54.167 17.4736 57.0479 17.4736C58.5127 17.4736 59.5967 16.9707 60.2998 15.9648C61.0127 14.959 61.3691 13.3916 61.3691 11.2627C61.3691 9.12402 61.0078 7.54688 60.2852 6.53125C59.5723 5.50586 58.5029 4.99316 57.0771 4.99316C54.1768 4.99316 52.7266 7.08301 52.7266 11.2627Z" fill="#EB0E0E"/>
</svg>
